<svg width="360" height="360" viewBox="0 0 360 360" fill="none" xmlns="http://www.w3.org/2000/svg">
<g clip-path="url(#clip0_23_2)">
<rect x="8.1" y="-4.04999" width="336.6" height="342.45" rx="24" fill="#FCF4F4"/>
<path d="M181.659 234.613C181.659 231.703 179.304 229.339 176.387 229.339C173.476 229.339 171.113 231.703 171.113 234.613C171.113 237.524 173.476 239.886 176.387 239.886C179.304 239.886 181.659 237.524 181.659 234.613Z" fill="black"/>
<path d="M134.275 323.502L133.588 323.329C132.29 322.997 130.969 323.782 130.638 325.08C130.307 326.378 131.091 327.699 132.389 328.029L133.107 328.211C133.302 328.259 133.5 328.282 133.692 328.282C134.781 328.282 135.771 327.545 136.045 326.441C136.368 325.141 135.576 323.825 134.275 323.502Z" fill="black"/>
<path d="M282.238 144.855C282.126 143.52 280.956 142.527 279.618 142.639C278.283 142.751 277.291 143.924 277.404 145.259C281.51 194.374 282.899 252.017 281.533 316.618H258.977C263.21 313.752 265.319 311.586 265.424 311.476C268.237 308.655 267.531 302.805 266.487 296.547C266.34 295.661 266.211 294.896 266.152 294.381C265.014 284.527 263.313 274.939 261.523 265.163C259.965 256.645 258.122 248.027 256.341 239.694L256.097 238.553C256.097 238.552 256.097 238.551 256.097 238.55C256.092 238.528 256.086 238.505 256.082 238.482C256.08 238.479 256.081 238.475 256.08 238.472C252.625 222.311 248.709 203.993 247.323 185.848C245.465 161.574 246.654 135.726 250.961 106.826C255.37 77.2218 260.422 59.8385 263.37 51.3918C265.934 61.0668 270.584 81.7626 274.576 116.555C274.717 117.793 275.766 118.706 276.982 118.706C277.075 118.706 277.168 118.7 277.262 118.689C278.594 118.537 279.548 117.334 279.395 116.003C273.483 64.4566 266.293 43.9514 265.991 43.1034C265.986 43.09 265.978 43.0788 265.973 43.0654C265.968 43.0535 265.968 43.0415 265.963 43.0303C265.942 42.9775 265.909 42.9325 265.885 42.8819C265.842 42.7905 265.8 42.6984 265.746 42.6147C265.712 42.562 265.672 42.5149 265.634 42.4657C265.573 42.3841 265.511 42.304 265.441 42.2315C265.395 42.1844 265.344 42.1436 265.295 42.1C265.222 42.0375 265.149 41.9756 265.071 41.9222C265.012 41.8821 264.95 41.8483 264.887 41.8132C264.808 41.7689 264.728 41.7274 264.644 41.6922C264.613 41.6789 264.585 41.6585 264.554 41.6472L235.525 30.8346C235.524 30.8346 235.524 30.8339 235.523 30.8332L219.088 24.7082C217.569 23.9763 215.916 23.2964 214.051 22.6319C211.935 21.4563 210.104 19.785 208.747 17.7804L203.423 9.92997C203.415 9.91731 203.407 9.90606 203.399 9.89411L203.39 9.88145C203.386 9.87582 203.385 9.8702 203.38 9.86458C202.004 7.81637 199.946 6.26879 197.589 5.50731C187.908 2.36364 177.264 2.36504 167.59 5.50661C165.235 6.26739 163.176 7.81286 161.792 9.85825C161.776 9.88356 161.758 9.90957 161.741 9.93629L156.452 17.7473L156.085 18.269C156.084 18.2697 156.084 18.2697 156.083 18.2704C155.611 18.9124 155.095 19.51 154.507 20.0986C153.505 21.0921 152.373 21.9365 151.142 22.6172C149.341 23.2528 147.621 23.9608 146.022 24.7265L100.623 41.6465C100.594 41.6578 100.569 41.6761 100.541 41.688C100.451 41.7253 100.366 41.7696 100.282 41.8174C100.224 41.8504 100.167 41.8814 100.112 41.9193C100.028 41.9763 99.9507 42.041 99.8741 42.1085C99.8298 42.1479 99.7834 42.1844 99.7419 42.2266C99.6653 42.3054 99.5971 42.3932 99.5303 42.4832C99.4993 42.5254 99.4649 42.5641 99.4368 42.6077C99.3742 42.704 99.325 42.8088 99.2757 42.915C99.2582 42.9543 99.2314 42.9888 99.216 43.0296C99.2125 43.038 99.2118 43.0472 99.2082 43.0563C99.2012 43.0725 99.1921 43.0865 99.1857 43.1034C98.9298 43.8199 92.8428 61.1477 87.2537 103.957C77.9436 175.261 77.5421 260.308 78.845 319.097C78.8746 320.415 79.9518 321.469 81.2701 321.469H114.567C115.66 322.013 116.775 322.543 117.899 323.041C118.219 323.182 118.552 323.25 118.88 323.25C119.811 323.25 120.699 322.711 121.099 321.806C121.642 320.581 121.089 319.149 119.865 318.605C118.636 318.06 117.412 317.48 116.228 316.879C116.194 316.862 116.159 316.845 116.125 316.829C107.476 312.426 103.258 308.122 103.188 308.049C102.335 307.194 102.433 303.593 103.476 297.345C103.634 296.394 103.772 295.573 103.845 294.936C104.966 285.229 106.652 275.727 108.427 266.034C109.848 258.251 111.517 250.369 113.16 242.685C117.405 243.38 127.003 244.68 139.492 244.68C143.121 244.68 146.995 244.57 151.05 244.303C152.12 244.233 153.017 243.469 153.257 242.425L157.566 223.616C157.738 222.867 157.545 222.08 157.045 221.497C156.546 220.914 155.806 220.599 155.032 220.654C154.792 220.671 131.468 222.243 118.337 217.49C120.27 207.202 121.883 196.76 122.689 186.218C124.578 161.579 123.375 135.375 119.013 106.111C113.56 69.5022 107.221 51.427 104.721 45.2965L128.503 36.4329C140.188 119.565 176.799 175.69 180.343 180.962C181.826 187.57 198.042 262.678 180.691 310.219C180.376 310.616 180.181 311.107 180.164 311.634C178.121 316.973 175.681 321.8 172.902 326.014C164.299 326.782 155.967 326.757 148.127 325.919C146.792 325.776 145.599 326.742 145.457 328.074C145.315 329.405 146.28 330.601 147.611 330.743C151.872 331.198 156.265 331.425 160.761 331.425C165.253 331.425 169.847 331.199 174.512 330.745C174.582 330.738 174.647 330.717 174.715 330.704C174.781 330.692 174.846 330.683 174.909 330.665C175.043 330.629 175.17 330.58 175.294 330.522C175.331 330.505 175.37 330.494 175.407 330.475C175.566 330.391 175.713 330.29 175.848 330.175C175.881 330.146 175.909 330.112 175.94 330.082C176.044 329.983 176.139 329.878 176.223 329.763C176.239 329.741 176.261 329.725 176.276 329.703C178.391 326.625 180.324 323.23 182.06 319.562C185.062 328.263 189.374 330.326 189.957 330.568C190.18 330.662 190.416 330.721 190.657 330.744C195.476 331.212 200.041 331.424 204.363 331.424C225.608 331.424 240.889 326.312 250.608 321.468H283.907C285.226 321.468 286.302 320.415 286.331 319.096C287.786 253.365 286.41 194.741 282.238 144.855ZM152.12 225.662L148.933 239.572C132.506 240.473 119.49 238.796 114.247 237.95L118.07 222.525C129.244 226.083 145.284 225.926 152.12 225.662ZM114.215 106.828C118.522 135.728 119.711 161.576 117.852 185.85C116.471 203.922 112.642 221.855 108.939 239.198L108.906 239.343C108.902 239.361 108.904 239.379 108.9 239.397C108.897 239.412 108.894 239.426 108.892 239.44L108.876 239.52C107.077 247.909 105.219 256.583 103.653 265.163C101.863 274.937 100.162 284.527 99.024 294.381C98.965 294.896 98.8363 295.661 98.6886 296.547C97.6438 302.805 96.9379 308.655 99.7173 311.442C99.846 311.575 101.962 313.749 106.199 316.618H83.6425C81.429 211.993 86.9619 143.803 92.016 104.94C95.6385 77.0875 99.5352 59.9369 101.803 51.389C104.752 59.8357 109.805 77.219 114.215 106.828ZM250.763 237.189C245.637 238.238 232.574 240.431 216.243 239.57L213.055 225.662C219.893 225.927 235.937 226.084 247.11 222.525L250.763 237.189ZM207.596 42.8868C207.57 42.1837 207.535 41.494 207.502 40.8098L207.497 40.7015C207.44 39.5407 207.376 38.4157 207.312 37.3132L207.2 35.606C207.197 35.5715 207.195 35.5357 207.191 35.5012C207.181 35.4112 207.177 35.3254 207.169 35.1771L207.143 34.8403C207.111 34.4247 207.077 34.0169 207.051 33.6133C207.051 33.6112 207.05 33.6091 207.05 33.607C207.049 33.5859 207.047 33.5676 207.045 33.5465C207.008 33.1521 206.977 32.7632 206.945 32.3744L206.935 32.2626C206.934 32.257 206.935 32.2514 206.935 32.2464L206.823 30.9534C206.819 30.9042 206.804 30.8592 206.797 30.8107L206.67 29.4825C206.668 29.4452 206.675 29.4093 206.67 29.3714L206.569 28.413L206.568 28.4074C206.545 28.1388 206.521 27.8772 206.49 27.6192L206.431 27.1031C206.431 27.1024 206.43 27.1017 206.43 27.1017C206.243 25.3727 206.029 23.629 205.791 21.9168C207.466 23.977 209.538 25.7123 211.876 26.9793C211.883 26.9836 211.892 26.985 211.9 26.9892C212.09 27.0968 212.288 27.1973 212.52 27.3133C212.534 27.3204 212.549 27.3267 212.564 27.3337C212.568 27.3358 212.573 27.3386 212.578 27.3407C212.579 27.3415 212.582 27.3422 212.584 27.3429C212.958 27.525 213.332 27.7022 213.721 27.8639C213.734 27.8695 213.747 27.8758 213.76 27.8807C213.934 27.9574 214.112 28.0263 214.289 28.0945L217.164 29.1661C217.204 29.1836 217.245 29.2005 217.288 29.216L232.003 34.7004C224.003 92.8629 203.799 137.459 191.215 160.717C206.391 108.88 208.636 68.5882 207.596 42.8868ZM133.165 34.6961L147.799 29.242L150.715 28.1564C151.054 28.0256 151.393 27.8871 151.742 27.7359L152.074 27.5911C152.156 27.5559 152.183 27.5454 152.261 27.5004C152.264 27.4997 152.27 27.4961 152.279 27.4926C152.303 27.4814 152.326 27.4694 152.35 27.4582C152.466 27.4047 152.588 27.3464 152.743 27.2676C152.745 27.2669 152.747 27.2648 152.749 27.2641L152.786 27.2458C152.801 27.2381 152.818 27.2297 152.834 27.2212C152.836 27.2198 152.839 27.2198 152.842 27.2184C152.854 27.2128 152.864 27.2057 152.876 27.2008C152.89 27.1924 152.907 27.1854 152.922 27.1769L153.337 26.9519C153.338 26.9519 153.338 26.9512 153.339 26.9505C153.35 26.9449 153.358 26.9407 153.369 26.935C155.043 26.0252 156.577 24.8819 157.928 23.5397C157.93 23.5375 157.932 23.5347 157.935 23.5326C157.935 23.5319 157.936 23.5312 157.937 23.5305C158.006 23.4616 158.068 23.3878 158.134 23.3182C158.449 22.9961 158.762 22.6643 159.063 22.3099C159.178 22.1756 159.28 22.0357 159.391 21.9C156.503 42.7378 153.69 91.3919 173.916 160.584C161.327 137.237 141.127 92.5683 133.165 34.6961ZM166.028 12.3051C166.8 11.2926 167.865 10.5171 169.086 10.1226C177.797 7.29325 187.377 7.29184 196.095 10.1233C197.313 10.5171 198.371 11.2919 199.138 12.3002C199.219 12.6433 199.336 13.1496 199.485 13.8436L199.488 13.8576C199.488 13.8583 199.488 13.8597 199.489 13.8611L199.496 13.8984L199.603 14.418C199.61 14.4539 199.617 14.4904 199.624 14.5256C199.666 14.7168 199.707 14.9271 199.75 15.1415C199.755 15.1661 199.759 15.1865 199.764 15.2125C199.943 16.0985 200.135 17.1553 200.343 18.3949C200.432 18.911 200.522 19.4615 200.611 20.0346C200.735 20.8221 200.86 21.6658 200.984 22.5644C201.218 24.2526 201.431 25.9739 201.621 27.7359L201.674 28.2042C201.674 28.2056 201.675 28.207 201.675 28.2084C201.699 28.4109 201.718 28.6134 201.741 28.8736L202.111 32.7625C202.144 33.1739 202.177 33.5859 202.211 33.9368C202.239 34.3579 202.272 34.784 202.306 35.2179L202.332 35.5511C202.332 35.5511 202.332 35.5518 202.332 35.5525C202.341 35.6904 202.348 35.8239 202.361 35.9625L202.469 37.6C202.532 38.6836 202.596 39.7938 202.652 40.9399L202.656 41.0482C202.69 41.714 202.722 42.3869 202.748 43.0774C203.859 70.4979 201.155 114.795 182.586 172.235C151.894 77.2999 164.539 18.4912 166.028 12.3051ZM248.974 316.87C248.965 316.874 248.956 316.876 248.946 316.881C237.964 322.458 219.134 328.539 191.645 325.967C190.659 325.286 187.031 322.145 185.144 312.154C192.997 290.847 195.375 262.117 192.193 226.72C190.111 203.561 186.188 184.923 185.191 180.418C190.342 172.659 225.253 117.657 236.665 36.4364L260.454 45.2986C257.954 51.4284 251.616 69.5036 246.163 106.113C241.801 135.377 240.599 161.58 242.486 186.22C243.292 196.776 244.929 207.335 246.835 217.492C233.714 222.239 210.384 220.671 210.144 220.656C209.388 220.603 208.632 220.915 208.131 221.498C207.631 222.082 207.438 222.868 207.61 223.617L211.92 242.426C212.159 243.471 213.055 244.234 214.126 244.305C217.529 244.528 220.791 244.624 223.891 244.624C237.193 244.624 247.381 242.863 251.856 241.927C253.548 249.847 255.28 257.999 256.75 266.037C258.524 275.728 260.21 285.232 261.333 294.938C261.406 295.575 261.544 296.396 261.702 297.347C262.745 303.594 262.842 307.196 261.959 308.081C261.918 308.123 257.675 312.454 248.974 316.87Z" fill="black"/>
<path d="M278.289 128.362L278.289 128.362L278.291 128.362C279.343 128.254 280.289 129.03 280.393 130.092L280.393 130.092L280.463 130.798C280.463 130.798 280.463 130.798 280.463 130.798C280.565 131.856 279.79 132.798 278.732 132.9L278.732 132.9L278.727 132.901C278.668 132.907 278.606 132.91 278.542 132.91C277.563 132.91 276.725 132.165 276.628 131.17L276.56 130.466L276.56 130.466C276.457 129.407 277.231 128.465 278.289 128.362Z" fill="black" stroke="black"/>
</g>
<defs>
<clipPath id="clip0_23_2">
<rect width="360" height="360" fill="white"/>
</clipPath>
</defs>
</svg>
