<svg width="1210" height="810" viewBox="0 0 1210 810" fill="none" xmlns="http://www.w3.org/2000/svg">
<g filter="url(#filter0_d_2_2)">
<rect x="5" y="1" width="1200" height="800" rx="24" fill="#FCF4F4"/>
<rect x="4.5" y="0.5" width="1201" height="801" rx="24.5" stroke="black"/>
</g>
<rect x="73.5" y="67.7252" width="812.333" height="89.0662" fill="#FCF4F4" stroke="black"/>
<rect x="914.833" y="67.7252" width="221.667" height="89.0662" fill="#FCF4F4" stroke="black"/>
<rect x="73.5" y="180.308" width="1063" height="556.616" fill="#FCF4F4" stroke="black"/>
<rect x="102.5" y="219.5" width="431" height="479" rx="23.5" fill="#FCF4F4" stroke="black"/>
<rect x="1012.5" y="679.5" width="108.333" height="38.7351" rx="19.3675" fill="#FCF4F4" stroke="black"/>
<path d="M999.496 116.441C999.496 117.457 999.242 118.324 998.734 119.043C998.234 119.754 997.531 120.297 996.625 120.672C995.719 121.047 994.652 121.234 993.426 121.234C992.777 121.234 992.164 121.203 991.586 121.141C991.008 121.078 990.477 120.988 989.992 120.871C989.508 120.754 989.082 120.609 988.715 120.438V118.527C989.301 118.77 990.016 118.996 990.859 119.207C991.703 119.41 992.586 119.512 993.508 119.512C994.367 119.512 995.094 119.398 995.688 119.172C996.281 118.938 996.73 118.605 997.035 118.176C997.348 117.738 997.504 117.215 997.504 116.605C997.504 116.02 997.375 115.531 997.117 115.141C996.859 114.742 996.43 114.383 995.828 114.062C995.234 113.734 994.422 113.387 993.391 113.02C992.664 112.762 992.023 112.48 991.469 112.176C990.914 111.863 990.449 111.512 990.074 111.121C989.699 110.73 989.414 110.277 989.219 109.762C989.031 109.246 988.938 108.656 988.938 107.992C988.938 107.078 989.168 106.297 989.629 105.648C990.098 104.992 990.742 104.492 991.562 104.148C992.391 103.797 993.34 103.621 994.41 103.621C995.324 103.621 996.168 103.707 996.941 103.879C997.723 104.051 998.438 104.281 999.086 104.57L998.465 106.281C997.848 106.023 997.191 105.809 996.496 105.637C995.809 105.465 995.098 105.379 994.363 105.379C993.629 105.379 993.008 105.488 992.5 105.707C992 105.918 991.617 106.219 991.352 106.609C991.086 107 990.953 107.465 990.953 108.004C990.953 108.605 991.078 109.105 991.328 109.504C991.586 109.902 991.992 110.258 992.547 110.57C993.109 110.875 993.852 111.195 994.773 111.531C995.781 111.898 996.637 112.289 997.34 112.703C998.043 113.109 998.578 113.609 998.945 114.203C999.312 114.789 999.496 115.535 999.496 116.441ZM1007.65 107.922C1008.75 107.922 1009.68 108.164 1010.46 108.648C1011.25 109.133 1011.84 109.812 1012.26 110.688C1012.67 111.555 1012.88 112.57 1012.88 113.734V114.941H1004.01C1004.03 116.449 1004.41 117.598 1005.13 118.387C1005.86 119.176 1006.88 119.57 1008.2 119.57C1009.02 119.57 1009.73 119.496 1010.36 119.348C1010.98 119.199 1011.63 118.98 1012.3 118.691V120.402C1011.66 120.691 1011.01 120.902 1010.37 121.035C1009.74 121.168 1008.99 121.234 1008.12 121.234C1006.89 121.234 1005.81 120.984 1004.89 120.484C1003.97 119.977 1003.26 119.234 1002.75 118.258C1002.25 117.281 1001.99 116.086 1001.99 114.672C1001.99 113.289 1002.22 112.094 1002.68 111.086C1003.15 110.07 1003.81 109.289 1004.65 108.742C1005.5 108.195 1006.5 107.922 1007.65 107.922ZM1007.63 109.516C1006.59 109.516 1005.76 109.855 1005.14 110.535C1004.53 111.215 1004.16 112.164 1004.04 113.383H1010.84C1010.83 112.617 1010.71 111.945 1010.48 111.367C1010.25 110.781 1009.9 110.328 1009.43 110.008C1008.96 109.68 1008.36 109.516 1007.63 109.516ZM1020.99 107.945C1022.52 107.945 1023.66 108.289 1024.4 108.977C1025.14 109.664 1025.51 110.762 1025.51 112.27V121H1024.09L1023.72 119.102H1023.62C1023.27 119.57 1022.89 119.965 1022.5 120.285C1022.11 120.598 1021.66 120.836 1021.14 121C1020.63 121.156 1020.01 121.234 1019.27 121.234C1018.48 121.234 1017.79 121.098 1017.18 120.824C1016.58 120.551 1016.1 120.137 1015.75 119.582C1015.41 119.027 1015.23 118.324 1015.23 117.473C1015.23 116.191 1015.74 115.207 1016.76 114.52C1017.77 113.832 1019.32 113.457 1021.4 113.395L1023.61 113.301V112.516C1023.61 111.406 1023.38 110.629 1022.9 110.184C1022.42 109.738 1021.75 109.516 1020.88 109.516C1020.21 109.516 1019.57 109.613 1018.96 109.809C1018.35 110.004 1017.77 110.234 1017.23 110.5L1016.63 109.023C1017.21 108.727 1017.87 108.473 1018.62 108.262C1019.37 108.051 1020.16 107.945 1020.99 107.945ZM1023.59 114.672L1021.63 114.754C1020.03 114.816 1018.9 115.078 1018.25 115.539C1017.59 116 1017.26 116.652 1017.26 117.496C1017.26 118.23 1017.48 118.773 1017.93 119.125C1018.38 119.477 1018.96 119.652 1019.7 119.652C1020.84 119.652 1021.77 119.336 1022.5 118.703C1023.23 118.07 1023.59 117.121 1023.59 115.855V114.672ZM1035.36 107.922C1035.61 107.922 1035.88 107.938 1036.16 107.969C1036.45 107.992 1036.7 108.027 1036.91 108.074L1036.67 109.879C1036.46 109.824 1036.22 109.781 1035.96 109.75C1035.71 109.719 1035.46 109.703 1035.24 109.703C1034.72 109.703 1034.23 109.809 1033.77 110.02C1033.32 110.223 1032.92 110.52 1032.58 110.91C1032.23 111.293 1031.96 111.758 1031.77 112.305C1031.57 112.844 1031.48 113.445 1031.48 114.109V121H1029.52V108.156H1031.14L1031.35 110.523H1031.43C1031.7 110.047 1032.02 109.613 1032.39 109.223C1032.77 108.824 1033.2 108.508 1033.69 108.273C1034.19 108.039 1034.75 107.922 1035.36 107.922ZM1044.48 121.234C1043.33 121.234 1042.31 120.996 1041.43 120.52C1040.54 120.043 1039.86 119.316 1039.36 118.34C1038.87 117.363 1038.62 116.133 1038.62 114.648C1038.62 113.094 1038.88 111.824 1039.4 110.84C1039.92 109.848 1040.64 109.113 1041.55 108.637C1042.47 108.16 1043.51 107.922 1044.67 107.922C1045.31 107.922 1045.93 107.988 1046.52 108.121C1047.12 108.246 1047.62 108.406 1048 108.602L1047.41 110.23C1047.02 110.074 1046.57 109.934 1046.05 109.809C1045.55 109.684 1045.07 109.621 1044.62 109.621C1043.73 109.621 1042.99 109.812 1042.4 110.195C1041.81 110.578 1041.37 111.141 1041.07 111.883C1040.79 112.625 1040.64 113.539 1040.64 114.625C1040.64 115.664 1040.78 116.551 1041.06 117.285C1041.35 118.02 1041.78 118.582 1042.34 118.973C1042.91 119.355 1043.62 119.547 1044.47 119.547C1045.15 119.547 1045.77 119.477 1046.31 119.336C1046.86 119.188 1047.36 119.016 1047.8 118.82V120.555C1047.37 120.773 1046.89 120.941 1046.36 121.059C1045.84 121.176 1045.21 121.234 1044.48 121.234ZM1052.79 102.766V108.215C1052.79 108.527 1052.79 108.844 1052.77 109.164C1052.75 109.477 1052.73 109.766 1052.69 110.031H1052.82C1053.08 109.578 1053.42 109.199 1053.82 108.895C1054.24 108.582 1054.71 108.348 1055.23 108.191C1055.75 108.027 1056.31 107.945 1056.89 107.945C1057.93 107.945 1058.79 108.109 1059.47 108.438C1060.17 108.766 1060.69 109.273 1061.03 109.961C1061.38 110.648 1061.56 111.539 1061.56 112.633V121H1059.64V112.762C1059.64 111.691 1059.39 110.891 1058.9 110.359C1058.41 109.828 1057.67 109.562 1056.66 109.562C1055.71 109.562 1054.95 109.746 1054.38 110.113C1053.81 110.473 1053.41 111.004 1053.16 111.707C1052.91 112.41 1052.79 113.27 1052.79 114.285V121H1050.85V102.766H1052.79Z" fill="black"/>
<path d="M1052.41 693.15H1056.05C1057.66 693.15 1058.86 693.391 1059.67 693.871C1060.48 694.352 1060.88 695.169 1060.88 696.323C1060.88 696.821 1060.79 697.27 1060.59 697.668C1060.41 698.061 1060.13 698.386 1059.77 698.644C1059.4 698.901 1058.96 699.08 1058.42 699.18V699.268C1058.99 699.355 1059.48 699.517 1059.92 699.751C1060.35 699.985 1060.69 700.313 1060.94 700.735C1061.18 701.157 1061.31 701.693 1061.31 702.344C1061.31 703.135 1061.12 703.803 1060.75 704.348C1060.39 704.893 1059.87 705.306 1059.21 705.587C1058.54 705.862 1057.75 706 1056.83 706H1052.41V693.15ZM1053.91 698.661H1056.37C1057.49 698.661 1058.26 698.477 1058.69 698.107C1059.12 697.738 1059.34 697.199 1059.34 696.49C1059.34 695.758 1059.08 695.23 1058.56 694.908C1058.05 694.586 1057.24 694.425 1056.12 694.425H1053.91V698.661ZM1053.91 699.918V704.726H1056.58C1057.72 704.726 1058.53 704.503 1059 704.058C1059.48 703.606 1059.71 703 1059.71 702.238C1059.71 701.752 1059.61 701.336 1059.39 700.99C1059.18 700.645 1058.83 700.381 1058.35 700.199C1057.88 700.012 1057.24 699.918 1056.45 699.918H1053.91ZM1071.78 696.367V706H1070.59L1070.38 704.646H1070.3C1070.1 704.98 1069.84 705.262 1069.52 705.49C1069.21 705.719 1068.85 705.889 1068.45 706C1068.06 706.117 1067.64 706.176 1067.19 706.176C1066.43 706.176 1065.79 706.053 1065.28 705.807C1064.76 705.561 1064.37 705.18 1064.11 704.664C1063.85 704.148 1063.72 703.486 1063.72 702.678V696.367H1065.2V702.572C1065.2 703.375 1065.38 703.976 1065.74 704.374C1066.11 704.767 1066.66 704.963 1067.41 704.963C1068.12 704.963 1068.69 704.828 1069.11 704.559C1069.54 704.289 1069.85 703.894 1070.03 703.372C1070.22 702.845 1070.31 702.2 1070.31 701.438V696.367H1071.78ZM1073.35 696.367H1074.91L1077.04 701.957C1077.16 702.285 1077.28 702.602 1077.38 702.906C1077.49 703.205 1077.58 703.492 1077.66 703.768C1077.74 704.043 1077.81 704.31 1077.86 704.567H1077.92C1078 704.274 1078.12 703.891 1078.27 703.416C1078.42 702.936 1078.58 702.446 1078.76 701.948L1080.77 696.367H1082.35L1078.15 707.415C1077.93 708.007 1077.67 708.522 1077.37 708.962C1077.08 709.401 1076.72 709.738 1076.3 709.973C1075.88 710.213 1075.37 710.333 1074.77 710.333C1074.5 710.333 1074.25 710.315 1074.04 710.28C1073.83 710.251 1073.65 710.216 1073.5 710.175V709.006C1073.62 709.035 1073.78 709.062 1073.96 709.085C1074.15 709.108 1074.34 709.12 1074.54 709.12C1074.91 709.12 1075.22 709.05 1075.48 708.909C1075.75 708.774 1075.98 708.575 1076.18 708.312C1076.37 708.048 1076.54 707.734 1076.68 707.371L1077.21 706.018L1073.35 696.367Z" fill="black"/>
<defs>
<filter id="filter0_d_2_2" x="0" y="0" width="1210" height="810" filterUnits="userSpaceOnUse" color-interpolation-filters="sRGB">
<feFlood flood-opacity="0" result="BackgroundImageFix"/>
<feColorMatrix in="SourceAlpha" type="matrix" values="0 0 0 0 0 0 0 0 0 0 0 0 0 0 0 0 0 0 127 0" result="hardAlpha"/>
<feOffset dy="4"/>
<feGaussianBlur stdDeviation="2"/>
<feComposite in2="hardAlpha" operator="out"/>
<feColorMatrix type="matrix" values="0 0 0 0 0 0 0 0 0 0 0 0 0 0 0 0 0 0 0.25 0"/>
<feBlend mode="normal" in2="BackgroundImageFix" result="effect1_dropShadow_2_2"/>
<feBlend mode="normal" in="SourceGraphic" in2="effect1_dropShadow_2_2" result="shape"/>
</filter>
</defs>
</svg>
